# xmcd
#
# Track frame offsets:
#	150
#	8024
#	19407
#	25711
#	35027
#	43400
#	53230
#	61474
#	70592
#	81655
#	93202
#	102847
#	111094
#	122868
#	132383
#	146168
#	156995
#	167628
#	177668
#	192215
#	202273
#	214475
#	225355
#	237525
#	249573
#	261617
#	270091
#	281805
#	292380
#	302464
#	313104
#	319107
#	325868
#	338098
#	345363
#	356176
#
# Disc length: 4874 seconds
# Revision: 3
# Processed by: cddbd v1.5.2PL0 Copyright (c) Steve Scherf et al.
# Submitted via: dBpowerAMP V12.0
#
DISCID=39130824
DTITLE=Buck Owens - Open Up Your Heart: The Buck Owens and the Buckaroos Recordings 1965-1968, CD06 - CD07
DYEAR=2010
DGENRE=Country
TTITLE0=Meanwhile Back at the Ranch
TTITLE1=Tracy's Waltz
TTITLE2=Runnin' Short
TTITLE3=Louisiana Waltz
TTITLE4=Saturday Night
TTITLE5=Spanish Moonlight
TTITLE6=Too Many Chiefs (Not Enough Indians)
TTITLE7=Guitar Fandango
TTITLE8=Things I Saw at the Fountain on the Plaza When I Was Visiting Rome or A
TTITLE9=The Gaucho Came Riding
TTITLE10=Mexican Jumping Bean
TTITLE11=Turkish Holiday
TTITLE12=I've Got You on My Mind Again
TTITLE13=I Wanna Be Wild and Free
TTITLE14=Where Has Our Love Gone?
TTITLE15=I Ain't a Gonna Be Treated This a Way
TTITLE16=Darlin' You Can Depend on Me
TTITLE17=Jesus, Jesus, Hold Me
TTITLE18=Sing That Kind of Song
TTITLE19=Love Is Me
TTITLE20=Hurry, Come Running Back to Me
TTITLE21=Alabama, Louisiana, or Maybe Tennessee
TTITLE22=Greensleeves
TTITLE23=Gathering Dust
TTITLE24=The Price I'll Have to Pay
TTITLE25=Aw Heck
TTITLE26=Keep on Your Keepin' On
TTITLE27=Bad Luck and Bad Weather
TTITLE28=Anywhere U.S.A.
TTITLE29=Tim-Buck-Too
TTITLE30=Georgia Peach
TTITLE31=Highland Fling
TTITLE32=Moonlight on the Desert
TTITLE33=March of the McGregor
TTITLE34=Who's Gonna Mow Your Grass
TTITLE35=We're Gonna Get Together
EXTD=
EXTT0=
EXTT1=
EXTT2=
EXTT3=
EXTT4=
EXTT5=
EXTT6=
EXTT7=
EXTT8=
EXTT9=
EXTT10=
EXTT11=
EXTT12=
EXTT13=
EXTT14=
EXTT15=
EXTT16=
EXTT17=
EXTT18=
EXTT19=
EXTT20=
EXTT21=
EXTT22=
EXTT23=
EXTT24=
EXTT25=
EXTT26=
EXTT27=
EXTT28=
EXTT29=
EXTT30=
EXTT31=
EXTT32=
EXTT33=
EXTT34=
EXTT35=
PLAYORDER=
